<svg width="48" height="48" viewBox="0 0 48 48" fill="none" xmlns="http://www.w3.org/2000/svg">
<g id="avatar">
<rect width="48" height="48" rx="24" fill="#C4C4C4"/>
<path id="user-Regular" d="M24.3306 25C28.1906 25 31.3306 21.86 31.3306 18C31.3306 14.14 28.1906 11 24.3306 11C20.4706 11 17.3306 14.14 17.3306 18C17.3306 21.86 20.4706 25 24.3306 25ZM24.3306 13C27.088 13 29.3306 15.2427 29.3306 18C29.3306 20.7573 27.088 23 24.3306 23C21.5733 23 19.3306 20.7573 19.3306 18C19.3306 15.2427 21.5733 13 24.3306 13ZM34.664 31.9561V33.304C34.664 34.5507 34.2093 35.7453 33.3827 36.6667C33.1853 36.888 32.912 37 32.6373 37C32.4 37 32.1613 36.9159 31.9706 36.7453C31.5586 36.3773 31.5253 35.7453 31.8933 35.3333C32.3906 34.7773 32.6653 34.0573 32.6653 33.3053V31.9574C32.6653 29.9387 31.3266 28.1919 29.408 27.7106C29.0706 27.6253 28.708 27.672 28.4133 27.8387C25.8787 29.2494 22.7773 29.2439 20.2586 27.8426C19.9573 27.6706 19.5947 27.6213 19.2573 27.7093C17.3387 28.192 15.9986 29.9387 15.9986 31.9574V33.3053C15.9986 34.0587 16.2733 34.7787 16.7707 35.3333C17.1387 35.7453 17.1039 36.3773 16.6933 36.7453C16.2799 37.1146 15.648 37.0786 15.2813 36.668C14.4547 35.7453 14 34.5507 14 33.3053V31.9574C14 29.0214 15.9613 26.4773 18.7693 25.7707C19.6 25.56 20.5026 25.6801 21.2413 26.1014C23.148 27.1627 25.5107 27.1667 27.4333 26.0973C28.1627 25.6813 29.0653 25.5626 29.8987 25.772C32.7027 26.4746 34.664 29.0187 34.664 31.9561Z" fill="#838383"/>
</g>
</svg>
