<svg width="32" height="32" viewBox="0 0 32 32" fill="none" xmlns="http://www.w3.org/2000/svg">
<g id="2 - Regular / user">
<path id="user-Regular" d="M15.9987 16.9997C19.8587 16.9997 22.9987 13.8597 22.9987 9.99969C22.9987 6.13969 19.8587 2.99969 15.9987 2.99969C12.1387 2.99969 8.99868 6.13969 8.99868 9.99969C8.99868 13.8597 12.1387 16.9997 15.9987 16.9997ZM15.9987 4.99969C18.756 4.99969 20.9987 7.24236 20.9987 9.99969C20.9987 12.757 18.756 14.9997 15.9987 14.9997C13.2413 14.9997 10.9987 12.757 10.9987 9.99969C10.9987 7.24236 13.2413 4.99969 15.9987 4.99969ZM26.332 23.9557V25.3037C26.332 26.5504 25.8773 27.745 25.0507 28.6664C24.8533 28.8877 24.58 28.9997 24.3053 28.9997C24.068 28.9997 23.8293 28.9156 23.6387 28.745C23.2267 28.377 23.1933 27.745 23.5613 27.333C24.0587 26.777 24.3333 26.057 24.3333 25.305V23.9571C24.3333 21.9384 22.9947 20.1916 21.076 19.7103C20.7387 19.625 20.376 19.6717 20.0814 19.8384C17.5467 21.2491 14.4453 21.2436 11.9267 19.8423C11.6253 19.6703 11.2627 19.621 10.9254 19.709C9.00669 20.1917 7.66665 21.9384 7.66665 23.9571V25.305C7.66665 26.0584 7.94137 26.7784 8.4387 27.333C8.8067 27.745 8.77197 28.377 8.36131 28.745C7.94797 29.1143 7.31603 29.0783 6.94936 28.6677C6.12269 27.745 5.66803 26.5504 5.66803 25.305V23.9571C5.66803 21.0211 7.62932 18.477 10.4373 17.7704C11.268 17.5597 12.1707 17.6798 12.9093 18.1011C14.816 19.1624 17.1787 19.1664 19.1014 18.097C19.8307 17.681 20.7334 17.5623 21.5667 17.7717C24.3707 18.4743 26.332 21.0184 26.332 23.9557Z" fill="#838383"/>
</g>
</svg>
