<?xml version="1.0" encoding="UTF-8"?>
<svg version="1.1" xmlns="http://www.w3.org/2000/svg" width="450" height="450">
<path d="M0 0 C1.86667553 1.62923643 3.7029472 3.29427724 5.5 5 C11.10152947 9.93608461 16.06515634 9.55207128 23.06640625 9.140625 C34.81241712 8.72070803 44.72797219 13.86156179 53.25 21.625 C62.4618473 31.35897629 65.25344803 42.89701813 65.1640625 55.828125 C65.022076 58.57319742 64.62287616 61.00909191 64.0625 63.6875 C63.51246546 67.76816169 64.77810292 69.609498 67.1875 72.875 C67.83332031 73.70257813 68.47914063 74.53015625 69.14453125 75.3828125 C75.41494144 84.22739109 76.79264908 95.42686738 76 106 C75.41345568 109.02017228 74.72815277 112.01106698 74 115 C75.95679688 115.05607422 75.95679688 115.05607422 77.953125 115.11328125 C97.63903629 115.79769709 112.94297927 119.1513723 127 134 C138.81046243 148.18613016 140.31827026 163.3987973 140.30078125 181.1796875 C140.30467751 182.84058741 140.30901406 184.50148635 140.31376648 186.16238403 C140.32119238 189.63026165 140.32096396 193.09803739 140.31567383 196.56591797 C140.30988436 200.97912076 140.32681525 205.39190315 140.3500185 209.80503654 C140.36485032 213.23172384 140.36561478 216.65831207 140.36250877 220.08502579 C140.36301726 221.71069292 140.36816471 223.33636631 140.37832069 224.9620018 C140.47505276 242.60784097 137.34695898 258.73381305 124.8125 271.9375 C111.28296674 284.50460408 97.68012412 287.51574405 79.8125 287.1875 C78.36915473 287.17241277 76.92579404 287.15873157 75.48242188 287.14648438 C71.98795463 287.11382868 68.49407988 287.06227452 65 287 C65.00888245 288.00509613 65.01776489 289.01019226 65.0269165 290.04574585 C65.10824187 299.54919614 65.16807992 309.0525752 65.20724869 318.55629539 C65.22806323 323.44148718 65.25626803 328.32639651 65.30175781 333.21142578 C65.34543535 337.93174617 65.36918316 342.65179603 65.37950897 347.37230301 C65.3868612 349.1671232 65.40121788 350.96192972 65.42292023 352.75663376 C65.57618989 365.96488924 64.78480407 375.97253877 55.2890625 386.01953125 C47.92937105 392.38704587 40.25913778 394.15095517 30.79695129 394.14044189 C29.54565753 394.14489858 29.54565753 394.14489858 28.26908511 394.1494453 C25.46950039 394.15812752 22.66995845 394.15964015 19.87036133 394.16113281 C17.8646943 394.16576136 15.85902816 394.17078607 13.85336304 394.17617798 C8.4006905 394.18930139 2.94803027 394.19574696 -2.5046556 394.20018864 C-5.91189664 394.20311978 -9.31913432 394.20722469 -12.72637367 394.21169281 C-23.38854589 394.22536829 -34.05071042 394.2350344 -44.7128908 394.2388947 C-57.01734942 394.24337412 -69.32169688 394.26091649 -81.6261217 394.2898953 C-91.13879314 394.31152064 -100.65143332 394.32159946 -110.16412908 394.32293582 C-115.8446383 394.32398334 -121.52504303 394.3298798 -127.20552635 394.34775543 C-132.55137588 394.36425051 -137.89704255 394.36638456 -143.24290848 394.35761642 C-145.20161873 394.35684679 -147.16033887 394.36117898 -149.11902428 394.37107468 C-151.80024343 394.38382287 -154.48081771 394.37790183 -157.16203308 394.36749268 C-158.3150836 394.37957728 -158.3150836 394.37957728 -159.49142808 394.39190602 C-169.20215999 394.30419124 -177.14663673 390.87912779 -184 384 C-190.68338217 375.23163108 -192.30907118 366.65595437 -192.23809814 355.89349365 C-192.23965715 354.90282182 -192.24121616 353.91214999 -192.24282241 352.8914578 C-192.24576775 349.5860945 -192.23462225 346.28092999 -192.22363281 342.97558594 C-192.22310834 340.59981793 -192.2235448 338.22404955 -192.22486877 335.84828186 C-192.22620095 330.73828064 -192.22180009 325.62832753 -192.21326447 320.51833344 C-192.20017996 312.43238151 -192.20780416 304.34650917 -192.21868896 296.26055908 C-192.22216667 293.48955929 -192.2255118 290.71855936 -192.22881699 287.94755936 C-192.22964832 287.25515144 -192.23047966 286.56274352 -192.23133619 285.84935354 C-192.24050933 277.97785854 -192.24546785 270.10636286 -192.24853516 262.23486328 C-192.24882091 261.51581563 -192.24910665 260.79676798 -192.24940106 260.055931 C-192.25350384 248.40861155 -192.24228216 236.76134334 -192.22715965 225.11403534 C-192.21216539 213.13553369 -192.22021414 201.15718655 -192.24777675 189.17870736 C-192.26245817 182.46127381 -192.26512066 175.74426888 -192.24155426 169.02684784 C-192.21938357 162.70651347 -192.22498451 156.38680756 -192.25153923 150.0664959 C-192.25629872 147.75266996 -192.25088523 145.43879624 -192.23430824 143.1250248 C-192.15155626 130.75462275 -192.19918657 121.63037742 -199 111 C-201.76374895 104.08610763 -202.51976099 97.59686466 -202.4375 90.1875 C-202.42992676 89.22481201 -202.42235352 88.26212402 -202.41455078 87.27026367 C-202.23887481 79.64631132 -201.1214679 73.01354818 -198 66 C-197.5875 65.06285156 -197.175 64.12570313 -196.75 63.16015625 C-191.14853528 51.81400754 -182.36851202 42.61613576 -171 37 C-168.75426312 36.29869971 -166.50410812 35.61140861 -164.25 34.9375 C-159.46217901 33.23969114 -157.27373112 31.65651331 -154.96289062 27.06103516 C-154.12933691 25.19719738 -153.32024789 23.32513256 -152.5234375 21.4453125 C-147.8412297 10.85631948 -137.96945072 4.7356377 -127.5 0.5625 C-116.11317729 -2.86244277 -103.22314242 -2.46803105 -92.34765625 2.3203125 C-90.03884771 3.23342225 -90.03884771 3.23342225 -87.95703125 2.29296875 C-87.31121094 1.86628906 -86.66539062 1.43960938 -86 1 C-85.31164062 0.56042969 -84.62328125 0.12085937 -83.9140625 -0.33203125 C-83.15867187 -0.82058594 -82.40328125 -1.30914062 -81.625 -1.8125 C-75.42094874 -5.5550619 -68.90210655 -7.86823049 -62 -10 C-61.20335937 -10.24878906 -60.40671875 -10.49757812 -59.5859375 -10.75390625 C-39.53182216 -15.82058203 -17.15631962 -11.16039734 0 0 Z M65 138 C65 179.91 65 221.82 65 265 C89.17691123 266.41779218 89.17691123 266.41779218 108.24609375 255.859375 C118.42740681 245.06582263 118.15587612 232.97527537 118.16796875 218.82421875 C118.17118981 217.44952867 118.17455449 216.07483893 118.17805481 214.70014954 C118.18401577 211.82816779 118.18589785 208.956216 118.18530273 206.08422852 C118.1852013 202.43323449 118.1988483 198.78243572 118.21607494 195.13148785 C118.22728141 192.29418585 118.22921931 189.45692977 118.22869301 186.61960793 C118.2304216 184.62852659 118.24120541 182.63745958 118.25224304 180.64640808 C118.22187989 168.46163927 117.58574546 157.05527328 108.91796875 147.76953125 C95.62615153 135.33817239 84.30284456 138 65 138 Z " fill="#15133A" transform="translate(298,65)"/>
<path d="M0 0 C3.96709025 2.13612552 6.41139717 3.76785559 8 8 C8.25537109 10.90991211 8.25537109 10.90991211 8.2734375 14.27734375 C8.2940625 15.51419922 8.3146875 16.75105469 8.3359375 18.02539062 C8.36162749 20.59824361 8.38006385 23.17118106 8.390625 25.74414062 C8.57175523 35.4899534 9.34908301 46.19777377 15.9375 53.9375 C23.84586503 60.62533512 31.78213414 63.45067293 41.9453125 63.16015625 C42.72398682 63.14859497 43.50266113 63.13703369 44.30493164 63.12512207 C46.20351091 63.09525187 48.10182601 63.04930496 50 63 C50.09343242 81.68886903 50.16397383 100.37769067 50.20724869 119.0667448 C50.22787585 127.74436436 50.25599932 136.42183881 50.30175781 145.09936523 C50.34162095 152.66251513 50.3674317 160.22555995 50.37635398 167.78881198 C50.38156965 171.79371925 50.39383129 175.79832589 50.42292023 179.80313683 C50.45008126 183.57308771 50.45844374 187.34261429 50.45243073 191.11265373 C50.45353067 192.49576371 50.46148091 193.87888796 50.4768219 195.2619133 C50.49675608 197.15181444 50.48954683 199.04194352 50.48101807 200.93193054 C50.48470524 201.98922709 50.48839241 203.04652365 50.49219131 204.13585949 C49.86698156 207.77405571 48.57636506 209.39368177 46 212 C42.86107658 214.13299302 40.25919001 214.25446209 36.51016235 214.26742554 C34.83629707 214.28022049 34.83629707 214.28022049 33.12861633 214.29327393 C31.90877548 214.29236755 30.68893463 214.29146118 29.43212891 214.29052734 C28.14395767 214.29724457 26.85578644 214.30396179 25.52857971 214.31088257 C21.99751557 214.32854091 18.46654838 214.33323787 14.93544436 214.33451414 C12.72825775 214.33593641 10.52109574 214.34020743 8.31391525 214.34550858 C0.61062812 214.36400837 -7.09258983 214.37217926 -14.79589844 214.37060547 C-21.97143447 214.3694041 -29.14666969 214.39050535 -36.32212961 214.4220928 C-42.48702322 214.44826245 -48.65181862 214.45897248 -54.81676733 214.45769465 C-58.49689348 214.45718521 -62.17675226 214.46285809 -65.85682297 214.48405075 C-69.96253707 214.50704937 -74.06757908 214.49790813 -78.17333984 214.48583984 C-79.38913223 214.49707886 -80.60492462 214.50831787 -81.8575592 214.51989746 C-88.17267357 214.47266162 -92.2736169 214.38828321 -97 210 C-99.4671722 206.2992417 -99.25135946 204.46605882 -99.25396729 200.04698181 C-99.25708727 199.33529156 -99.26020725 198.6236013 -99.26342177 197.89034468 C-99.27141502 195.49964811 -99.26507308 193.10920443 -99.25878906 190.71850586 C-99.26149831 189.00704296 -99.26505887 187.29558122 -99.26940918 185.5841217 C-99.2785426 180.93139191 -99.27498519 176.27875062 -99.26865101 171.62601924 C-99.26359677 166.76358087 -99.26828078 161.90115021 -99.27142334 157.03871155 C-99.27506432 148.87336869 -99.27026006 140.70806198 -99.26074219 132.54272461 C-99.24985375 123.09223693 -99.25338551 113.64183552 -99.264395 104.19134992 C-99.27345978 96.08685915 -99.27475723 87.98239439 -99.26951766 79.87790018 C-99.26639396 75.03320403 -99.26599961 70.18854848 -99.27259064 65.3438549 C-99.27835185 60.79092414 -99.27438977 56.23810504 -99.26280212 51.68518639 C-99.26014911 50.01057877 -99.26093149 48.33596182 -99.26532745 46.66135788 C-99.27075914 44.38278826 -99.26397816 42.10458083 -99.25396729 39.82603455 C-99.25283621 37.90994086 -99.25283621 37.90994086 -99.25168228 35.95513821 C-99 33 -99 33 -97 31 C-94.35361878 30.23689769 -91.74195214 29.55728532 -89.0625 28.9375 C-83.48673629 27.63174219 -83.48673629 27.63174219 -78 26 C-77.98541748 26.92224365 -77.97083496 27.8444873 -77.95581055 28.79467773 C-77.89431526 32.25601518 -77.82008523 35.71661453 -77.73754883 39.17749023 C-77.70454205 40.66794757 -77.67643673 42.15852262 -77.65356445 43.64916992 C-77.46014939 55.92485345 -76.36320296 66.36964508 -68 76 C-59.20893633 83.37315018 -50.10706444 84.98004189 -38.92529297 84.24707031 C-32.07286602 83.36770738 -26.27477768 79.25186972 -22 74 C-15.78248609 65.40092375 -14.71289126 58.01826549 -14.69140625 47.58984375 C-14.66625871 45.36132537 -14.64086052 43.1328098 -14.61523438 40.90429688 C-14.58645396 37.41301123 -14.56241571 33.92177422 -14.54370117 30.43041992 C-14.52204008 27.04581536 -14.48261618 23.6617585 -14.44140625 20.27734375 C-14.44129044 19.23658188 -14.44117462 18.19582001 -14.4410553 17.1235199 C-14.36689627 11.68622664 -14.12603387 7.66379898 -11 3 C-7.38149613 0.06607794 -4.60901522 -0.65843075 0 0 Z " fill="#FAB038" transform="translate(259,181)"/>
<path d="M0 0 C4.38814239 3.42390584 8.27209238 7.22496763 12.1484375 11.20703125 C14.55114865 13.53370724 15.50745789 13.96787769 18.875 14.1875 C21.88744704 14.22649986 21.88744704 14.22649986 23.8359375 13.01171875 C28.7572169 10.71097622 35.25384436 11.20896335 40.38671875 12.6875 C46.41090295 15.44141277 50.23236633 19.78301771 52.8125 25.875 C54.39003743 30.64387752 55.22327292 35.28867648 53.09765625 40 C52.36747574 41.33043567 51.63311164 42.65858404 50.89453125 43.984375 C49.08850201 48.05385573 49.7928843 52.03240086 50.25 56.375 C50.8708533 58.17727185 50.8708533 58.17727185 52.8203125 58.859375 C55.3661831 60.1916227 56.76080933 61.69874217 58.625 63.875 C59.21539062 64.55304688 59.80578125 65.23109375 60.4140625 65.9296875 C65.30335971 72.31226761 64.61945598 79.29992693 64 87 C62.4419723 94.07176644 58.94427458 99.77967699 53 104 C46.92748452 107.17376268 41.89425917 107.42240482 35.140625 107.3515625 C30.88703986 107.44303745 29.44434562 107.62834417 26.0390625 110.4765625 C25.36617187 111.30929688 24.69328125 112.14203125 24 113 C23.67 113.33 23.34 113.66 23 114 C22.8797512 115.35587037 22.82055512 116.71729714 22.7890625 118.078125 C22.76070312 118.90957031 22.73234375 119.74101562 22.703125 120.59765625 C22.65150782 122.35005944 22.60710243 124.10269159 22.5703125 125.85546875 C22.3915061 130.69069193 22.12336392 134.06658659 19 138 C16.03258796 140.30798714 12.68359904 140.53024439 8.96875 140.4609375 C5.29041436 139.59973987 4.01819296 137.05786812 2 134 C0.56451969 131.12903938 0.89048181 128.65119339 0.89453125 125.4453125 C0.88105008 124.09373429 0.86602244 122.74217079 0.84960938 121.390625 C0.82700654 119.2732501 0.81230582 117.15751486 0.82495117 115.04003906 C0.87412502 103.80713734 -1.12209556 95.03319759 -8.375 86.0625 C-17.22696367 79.10738569 -25.5632548 75.7397526 -37 77 C-40.58430823 77.93043989 -43.72809385 79.27679609 -47 81 C-47.7115625 81.36609375 -48.423125 81.7321875 -49.15625 82.109375 C-55.95072799 86.34285744 -59.97112305 93.40469773 -62 101 C-63.1647937 109.76031152 -62.80671983 118.68378421 -62.6875 127.5 C-62.65592654 131.05358051 -62.63472518 134.60630853 -62.63691711 138.16003418 C-62.63678783 140.35715608 -62.61675682 142.55439478 -62.57389832 144.75109863 C-62.55632005 150.83693502 -62.91177966 154.3756743 -67 159 C-70.20407303 161.34965355 -73.10274765 161.54561533 -77 161 C-79.92483867 159.17452064 -82.43429205 157.13141589 -84 154 C-84.10403256 152.27544695 -84.14595804 150.54698399 -84.15771484 148.81933594 C-84.16797699 147.73771179 -84.17823914 146.65608765 -84.18881226 145.54168701 C-84.19611359 144.36777405 -84.20341492 143.19386108 -84.2109375 141.984375 C-84.23901008 139.51171218 -84.26767457 137.03905601 -84.296875 134.56640625 C-84.33812422 130.65804253 -84.37500133 126.74980265 -84.40136719 122.84130859 C-84.42898504 119.07623398 -84.4748642 115.3117298 -84.5234375 111.546875 C-84.52669037 110.38105896 -84.52994324 109.21524292 -84.53329468 108.01409912 C-84.62473206 100.08013503 -84.62473206 100.08013503 -88 93 C-90.92969883 91.12824797 -92.83635169 91.0030877 -96.3125 90.9375 C-100.66037165 92.19027658 -102.66071999 94.05028006 -105.90625 97.08984375 C-115.50885017 105.85042487 -125.34918666 108.72723599 -138.25390625 108.40234375 C-148.90023442 107.25889036 -156.99272742 101.92014663 -164 94 C-165.99056536 91.11485114 -167.59514058 88.20776234 -169 85 C-169.53947266 83.90751953 -169.53947266 83.90751953 -170.08984375 82.79296875 C-173.14429571 73.41986508 -172.18950924 62.13971421 -168.0625 53.3125 C-162.3657883 43.51735243 -154.73509692 37.56853497 -144 34 C-142.04917141 33.62523556 -140.09013726 33.29054449 -138.125 33 C-134.59409406 32.43666458 -133.04754702 32.03169801 -130 30 C-127.72705581 26.59058371 -126.91281567 23.54347323 -125.8515625 19.625 C-123.24353233 11.58556754 -118.53907156 7.11377229 -111.26953125 3.09375 C-105.44448743 0.28649997 -99.47045942 -0.00004679 -93.26171875 1.7890625 C-89.86786859 3.10637915 -86.84600006 4.33330631 -83.97265625 6.59765625 C-81.0784766 8.65510277 -78.89846578 8.66048908 -75.421875 8.546875 C-71.60222662 7.68437375 -69.24382736 5.46239217 -66.32421875 2.9453125 C-46.18637672 -13.9095536 -21.817046 -13.2788329 0 0 Z " fill="#F1EAD6" transform="translate(287,84)"/>
<path d="M0 0 C1.64706553 0.64268437 3.29262175 1.28923802 4.9375 1.9375 C6.31228516 2.47697266 6.31228516 2.47697266 7.71484375 3.02734375 C10 4 10 4 11 5 C11.0962127 7.28931623 11.1201865 9.5816652 11.11784363 11.8730011 C11.11854821 12.60042816 11.11925279 13.32785522 11.11997873 14.07732552 C11.12129517 16.53375127 11.11559709 18.99011394 11.11010742 21.4465332 C11.10986545 23.20058696 11.11014202 24.95464085 11.11090088 26.70869446 C11.11200998 30.49720505 11.11056693 34.28570356 11.10753441 38.07421303 C11.10390916 44.07189593 11.11302755 50.06951544 11.12532043 56.06718445 C11.12835333 57.5847859 11.12835333 57.5847859 11.13144749 59.13304597 C11.13561662 61.20271626 11.13981938 63.27238648 11.14405501 65.34205663 C11.17219973 79.30986161 11.19237335 93.27753109 11.17504883 107.24536133 C11.16346832 116.658911 11.17315379 126.07217745 11.20710641 135.48567647 C11.22422444 140.46613342 11.23060698 145.44607963 11.210989 150.42653847 C11.19266816 155.12092247 11.20251549 159.81443026 11.23324585 164.50874138 C11.239577 166.22429368 11.23584269 167.93991993 11.22084999 169.6554184 C11.12942727 180.96333346 12.14937467 190.09880861 19.80856609 199.13332081 C28.48465158 207.47533451 38.29902795 208.5932973 49.88818359 208.53344727 C51.25934267 208.54051996 52.63049394 208.54927061 54.00163269 208.55955505 C57.69813914 208.58191016 61.39421462 208.57914192 65.09076262 208.57023358 C68.18936663 208.56509448 71.28789173 208.57243995 74.3864876 208.57970566 C81.7033677 208.59666123 89.02003904 208.59318361 96.33691406 208.57641602 C103.85677562 208.55950479 111.37605623 208.57532496 118.89585435 208.6076389 C125.37861116 208.63442938 131.86118818 208.64158525 138.34399474 208.63312382 C142.20421664 208.62822129 146.06408947 208.63026329 149.92426682 208.65091133 C153.55748087 208.66941787 157.18986713 208.6631305 160.8230381 208.63871193 C162.77203317 208.63140708 164.72107338 208.64844359 166.66999817 208.66653442 C176.92966211 208.55729426 185.7048969 206.24023754 193.5 199.3125 C197.36658126 195.07614174 199.36029571 190.44715323 201 185 C201.175997 184.43957378 201.351994 183.87914757 201.53332424 183.30173874 C202.1748386 180.13766086 202.14202863 177.10400529 202.15821838 173.87530518 C202.16315636 173.15726581 202.16809434 172.43922645 202.17318195 171.69942832 C202.18853993 169.29343629 202.19691296 166.88747092 202.20532227 164.48144531 C202.21490213 162.75673692 202.22491227 161.03203086 202.23532104 159.30732727 C202.26236447 154.62384419 202.2833771 149.94035104 202.30332303 145.25683308 C202.32518603 140.36275203 202.35257319 135.46870201 202.37937927 130.574646 C202.4293019 121.30643754 202.47424234 112.03821185 202.51740164 102.7699697 C202.56677767 92.21866665 202.62169445 81.66739472 202.67708123 71.11612177 C202.79089467 49.41077685 202.89773513 27.7054022 203 6 C205.97 5.34 208.94 4.68 212 4 C213.52718884 10.11888391 214.29122034 15.64668852 214.26069641 21.93840027 C214.26452196 22.79123559 214.26834751 23.64407091 214.27228898 24.52274972 C214.28253535 27.35531868 214.27864293 30.18768176 214.2746582 33.02026367 C214.27900915 35.061093 214.28419357 37.10192069 214.29014587 39.14274597 C214.30350169 44.66725159 214.30411866 50.19168866 214.30158257 55.71620727 C214.30051117 60.33135346 214.30540024 64.94648588 214.310188 69.56162912 C214.32127 80.44661419 214.32172705 91.33156475 214.31567383 102.21655273 C214.30962573 113.4450619 214.32196927 124.67344602 214.3432439 135.90193385 C214.36084962 145.54884648 214.36686313 155.19571926 214.36360615 164.84264737 C214.36179251 170.60178457 214.36443824 176.36083242 214.37832069 182.11995506 C214.39087864 187.53153429 214.38897416 192.94291794 214.37590981 198.35449409 C214.37354056 200.34026531 214.37629113 202.3260502 214.38453293 204.31180573 C214.39497192 207.02228193 214.38692282 209.7320983 214.3742218 212.44255066 C214.38159609 213.22825178 214.38897037 214.0139529 214.39656812 214.82346314 C214.33982745 220.57853253 213.21452433 224.56472148 209.31738186 228.85034943 C205.91843386 230.53656376 202.63354997 230.4201914 198.92189026 230.39440918 C198.10120636 230.40050028 197.28052247 230.40659139 196.43496937 230.41286707 C193.68119689 230.4295345 190.92788492 230.42471597 188.17407227 230.41992188 C186.20131956 230.42726001 184.22857116 230.43584549 182.25582886 230.44558716 C176.89429284 230.46783814 171.53291035 230.47073206 166.17133451 230.46883965 C161.6980003 230.46872012 157.22469883 230.47727703 152.75137371 230.48561716 C142.19970553 230.50486394 131.64811647 230.50773031 121.09643555 230.50097656 C110.20476998 230.49433361 99.31344288 230.5172076 88.42184597 230.55429029 C79.07567245 230.5849587 69.72960797 230.59635046 60.38338512 230.59245348 C54.79907635 230.59038313 49.21503094 230.59590954 43.63076973 230.62034607 C38.38001509 230.6425635 33.12981189 230.64077697 27.87905502 230.62041855 C25.95091641 230.6169997 24.02274103 230.62213508 22.09465218 230.63640213 C19.46415171 230.65452513 16.83553588 230.64189846 14.20509338 230.62145996 C13.44030546 230.63397781 12.67551754 230.64649566 11.88755423 230.65939283 C7.93493422 230.59345352 6.17956924 230.14311288 3.04968166 227.64865875 C-0.50765359 223.05176582 -0.13921531 218.77711662 -0.12025452 213.21125793 C-0.12110894 212.30214604 -0.12196337 211.39303414 -0.12284368 210.45637339 C-0.12449612 207.397735 -0.11898093 204.33915096 -0.11352539 201.28051758 C-0.11324344 199.09291078 -0.1134014 196.90530389 -0.1139679 194.71769714 C-0.11425557 188.76764308 -0.10836364 182.81760906 -0.10139394 176.86755967 C-0.09515545 170.65354402 -0.09455621 164.43952794 -0.09336853 158.22550964 C-0.09061055 147.79201923 -0.08435838 137.3585357 -0.07543945 126.92504883 C-0.06626201 116.17797889 -0.0591828 105.43091095 -0.05493164 94.68383789 C-0.05453756 93.69035062 -0.05453756 93.69035062 -0.05413551 92.6767929 C-0.05283048 89.35414099 -0.05156902 86.03148908 -0.05032361 82.70883715 C-0.03986253 55.13921963 -0.0222659 27.56961033 0 0 Z " fill="#EEE6D3" transform="translate(128,207)"/>
</svg>
